<svg xmlns="http://www.w3.org/2000/svg" width="800" height="500" viewBox="0 0 800 500">
  <rect width="800" height="500" fill="#0f172a"/>
  <!-- Navbar -->
  <rect x="0" y="0" width="800" height="56" fill="#1e293b"/>
  <rect x="24" y="16" width="100" height="24" rx="4" fill="#f59e0b"/>
  <rect x="148" y="20" width="48" height="16" rx="3" fill="#334155"/>
  <rect x="208" y="20" width="48" height="16" rx="3" fill="#334155"/>
  <rect x="268" y="20" width="48" height="16" rx="3" fill="#334155"/>
  <rect x="700" y="16" width="76" height="24" rx="12" fill="#f59e0b" opacity=".8"/>
  <!-- Hero -->
  <rect x="0" y="56" width="800" height="220" fill="#0f172a"/>
  <rect x="160" y="90" width="480" height="40" rx="6" fill="#f59e0b" opacity=".9"/>
  <rect x="220" y="142" width="360" height="20" rx="4" fill="#334155"/>
  <rect x="280" y="172" width="240" height="16" rx="4" fill="#1e293b"/>
  <rect x="300" y="204" width="200" height="32" rx="8" fill="#f59e0b" opacity=".7"/>
  <!-- Section cards -->
  <rect x="24" y="296" width="232" height="176" rx="10" fill="#1e293b"/>
  <rect x="284" y="296" width="232" height="176" rx="10" fill="#1e293b"/>
  <rect x="544" y="296" width="232" height="176" rx="10" fill="#1e293b"/>
  <!-- Card details -->
  <rect x="44" y="316" width="192" height="100" rx="6" fill="#0f172a"/>
  <rect x="44" y="428" width="100" height="14" rx="3" fill="#f59e0b" opacity=".6"/>
  <rect x="44" y="448" width="160" height="10" rx="3" fill="#334155"/>
  <rect x="304" y="316" width="192" height="100" rx="6" fill="#0f172a"/>
  <rect x="304" y="428" width="100" height="14" rx="3" fill="#f59e0b" opacity=".6"/>
  <rect x="304" y="448" width="160" height="10" rx="3" fill="#334155"/>
  <rect x="564" y="316" width="192" height="100" rx="6" fill="#0f172a"/>
  <rect x="564" y="428" width="100" height="14" rx="3" fill="#f59e0b" opacity=".6"/>
  <rect x="564" y="448" width="160" height="10" rx="3" fill="#334155"/>
  <!-- Label -->
  <text x="400" y="492" font-family="system-ui,sans-serif" font-size="13" font-weight="600" fill="#64748b" text-anchor="middle">Template 01 — Dark</text>
</svg>
