<svg xmlns="http://www.w3.org/2000/svg" width="800" height="500" viewBox="0 0 800 500">
  <rect width="800" height="500" fill="#f8fafc"/>
  <!-- Navbar -->
  <rect x="0" y="0" width="800" height="56" fill="#ffffff"/>
  <rect x="0" y="55" width="800" height="1" fill="#e2e8f0"/>
  <rect x="24" y="14" width="110" height="28" rx="6" fill="#7c3aed"/>
  <rect x="156" y="20" width="48" height="16" rx="3" fill="#e2e8f0"/>
  <rect x="216" y="20" width="48" height="16" rx="3" fill="#e2e8f0"/>
  <rect x="276" y="20" width="48" height="16" rx="3" fill="#e2e8f0"/>
  <rect x="700" y="16" width="76" height="24" rx="12" fill="#7c3aed" opacity=".85"/>
  <!-- Hero -->
  <rect x="0" y="56" width="800" height="220" fill="#ede9fe"/>
  <rect x="160" y="90" width="480" height="40" rx="6" fill="#7c3aed" opacity=".9"/>
  <rect x="220" y="142" width="360" height="20" rx="4" fill="#c4b5fd"/>
  <rect x="280" y="172" width="240" height="16" rx="3" fill="#ddd6fe"/>
  <rect x="300" y="204" width="200" height="32" rx="8" fill="#7c3aed" opacity=".7"/>
  <!-- Section cards -->
  <rect x="24" y="296" width="232" height="176" rx="10" fill="#ffffff" stroke="#e2e8f0" stroke-width="1"/>
  <rect x="284" y="296" width="232" height="176" rx="10" fill="#ffffff" stroke="#e2e8f0" stroke-width="1"/>
  <rect x="544" y="296" width="232" height="176" rx="10" fill="#ffffff" stroke="#e2e8f0" stroke-width="1"/>
  <!-- Card details -->
  <rect x="44" y="316" width="192" height="100" rx="6" fill="#f1f5f9"/>
  <rect x="44" y="428" width="100" height="14" rx="3" fill="#7c3aed" opacity=".6"/>
  <rect x="44" y="448" width="160" height="10" rx="3" fill="#e2e8f0"/>
  <rect x="304" y="316" width="192" height="100" rx="6" fill="#f1f5f9"/>
  <rect x="304" y="428" width="100" height="14" rx="3" fill="#7c3aed" opacity=".6"/>
  <rect x="304" y="448" width="160" height="10" rx="3" fill="#e2e8f0"/>
  <rect x="564" y="316" width="192" height="100" rx="6" fill="#f1f5f9"/>
  <rect x="564" y="428" width="100" height="14" rx="3" fill="#7c3aed" opacity=".6"/>
  <rect x="564" y="448" width="160" height="10" rx="3" fill="#e2e8f0"/>
  <!-- Label -->
  <text x="400" y="492" font-family="system-ui,sans-serif" font-size="13" font-weight="600" fill="#94a3b8" text-anchor="middle">Template 02 — Light</text>
</svg>
